/* XPM */
static char *dummy[]={
"50 50 79 2",
"Qt c None",
".5 c #733820",
".1 c #733c20",
".3 c #734020",
"#c c #734029",
"#b c #7b4020",
".4 c #7b4029",
"#a c #7b4420",
".2 c #7b4429",
"#e c #7b4820",
".0 c #7b4829",
".T c #834420",
"## c #834429",
".M c #834820",
".Z c #834829",
".6 c #834c29",
".x c #8b4820",
".U c #8b4829",
"#. c #8b4c20",
".L c #8b4c29",
".V c #8b5029",
"#i c #8b5529",
".9 c #944c20",
".N c #944c29",
".O c #945020",
".w c #945029",
".Y c #945529",
".A c #9c5020",
".S c #9c5029",
"#d c #9c5520",
".d c #9c5529",
".X c #9c5920",
".g c #9c5929",
"#f c #9c5931",
".7 c #9c5d29",
"#h c #9c5d31",
".l c #a45520",
".y c #a45529",
".P c #a45920",
".e c #a45929",
".B c #a45931",
".f c #a45d29",
".z c #a45d31",
".a c #a46129",
".W c #ac5920",
".8 c #ac5929",
".K c #ac5d20",
".k c #ac5d29",
"#g c #ac5d31",
".c c #ac6129",
".b c #ac6131",
".o c #ac6529",
".# c #ac6531",
"#l c #ac6931",
".m c #b45d29",
".J c #b46129",
".v c #b46131",
".n c #b46529",
".h c #b46531",
".q c #b46931",
".i c #b46d31",
".H c #b47131",
".R c #bd6929",
".p c #bd6931",
".C c #bd6d29",
".I c #bd6d31",
".j c #bd7131",
"#m c #bd7139",
".E c #bd7531",
".Q c #bd7539",
".r c #bd7931",
".D c #c57131",
"#k c #c57539",
"#j c #c57931",
".s c #c57939",
".t c #c57d39",
".F c #c58139",
".G c #cd8141",
".u c #ffffff",
"QtQtQtQtQtQtQtQtQtQtQtQtQtQtQtQtQtQtQtQtQtQtQtQtQtQtQtQtQtQtQtQtQtQtQtQtQtQtQtQtQtQtQtQtQtQtQtQtQtQt",
"QtQtQtQtQtQtQtQtQtQtQtQtQtQtQtQtQtQtQtQtQtQtQtQtQtQtQtQtQtQtQtQtQtQtQtQtQtQtQtQtQtQtQtQtQtQtQtQtQtQt",
"QtQtQtQtQtQtQtQtQtQtQtQtQtQtQtQtQtQtQtQtQtQtQtQtQtQtQtQtQtQtQtQtQtQtQtQtQtQtQtQtQtQtQtQtQtQtQtQtQtQt",
"QtQtQtQtQtQtQtQtQtQtQtQtQtQtQtQtQtQtQtQtQtQtQtQtQtQtQtQtQtQtQtQtQtQtQtQtQtQtQtQtQtQtQtQtQtQtQtQtQtQt",
"QtQtQtQtQtQtQtQtQtQtQtQtQtQtQtQtQtQtQtQtQtQtQtQtQtQtQtQtQtQtQtQtQtQtQtQtQtQtQtQtQtQtQtQtQtQtQtQtQtQt",
"QtQtQtQtQtQtQtQtQtQtQtQtQtQtQtQtQtQtQtQtQtQtQtQtQtQtQtQtQtQtQtQtQtQtQtQtQtQtQtQtQtQtQtQtQtQtQtQtQtQt",
"QtQtQtQtQtQtQtQtQtQtQtQtQtQtQtQtQtQtQtQtQtQtQtQtQtQtQtQtQtQtQtQtQtQtQtQtQtQtQtQtQtQtQtQtQtQtQtQtQtQt",
"QtQtQtQtQtQtQtQtQtQtQtQtQtQtQtQtQtQtQtQtQtQtQtQtQtQtQtQtQtQtQtQtQtQtQtQtQtQtQtQtQtQtQtQtQtQtQtQtQtQt",
"QtQtQtQtQtQtQtQtQtQtQtQtQtQtQtQtQtQtQtQtQtQtQtQtQtQtQtQtQtQtQtQtQtQtQtQtQtQtQtQtQtQtQtQtQtQtQtQtQtQt",
"QtQtQtQtQtQtQtQtQtQtQtQtQtQtQtQtQtQtQtQtQtQtQtQtQtQtQtQtQtQtQtQtQtQtQtQtQtQtQtQtQtQtQtQtQtQtQtQtQtQt",
"QtQtQtQtQtQtQtQtQtQtQtQtQtQtQtQtQtQtQtQtQtQtQtQtQtQtQtQtQtQtQtQtQtQtQtQtQtQtQtQtQtQtQtQtQtQtQtQtQtQt",
"QtQtQtQtQtQtQtQtQtQtQtQtQtQtQtQtQtQtQtQtQtQtQtQtQtQtQtQtQtQtQtQtQtQtQtQtQtQtQtQtQtQtQtQtQtQtQtQtQtQt",
"QtQtQtQtQtQtQtQtQtQtQtQtQtQtQtQtQtQtQtQtQtQtQtQtQtQtQtQtQtQtQtQtQtQtQtQtQtQtQtQtQtQtQtQtQtQtQtQtQtQt",
"QtQtQtQtQtQtQtQtQtQtQtQtQtQtQtQtQtQtQtQtQtQtQtQtQtQtQtQtQtQtQtQtQtQtQtQtQtQtQtQtQtQtQtQtQtQtQtQtQtQt",
"QtQtQtQtQtQtQtQtQtQtQtQtQtQtQtQtQtQtQtQtQtQtQtQtQtQtQtQtQtQtQtQtQtQtQtQtQtQtQtQtQtQtQtQtQtQtQtQtQtQt",
"QtQtQtQtQtQtQtQtQtQtQtQtQtQtQtQtQtQtQtQtQtQtQtQtQtQtQtQtQtQtQtQtQtQtQtQtQtQtQtQtQtQtQtQtQtQtQtQtQtQt",
"QtQtQtQtQtQtQtQtQtQtQtQtQtQtQtQtQtQtQtQtQtQtQtQtQtQtQtQtQtQtQtQtQtQtQtQtQtQtQtQtQtQtQtQtQtQtQtQtQtQt",
"QtQtQtQtQtQtQtQtQtQtQtQtQtQtQtQtQtQt.#.a.b.c.b.d.e.f.f.g.d.g.b.c.h.i.j.iQtQtQtQtQtQtQtQtQtQtQtQtQtQt",
"QtQtQtQtQtQtQtQtQtQtQtQtQt.e.f.k.l.k.f.k.k.m.c.n.o.k.c.c.c.h.n.p.c.q.o.j.r.s.t.s.r.uQtQtQtQtQtQtQtQt",
"QtQtQtQtQtQtQtQtQt.c.b.f.v.f.w.x.d.e.y.g.z.A.B.k.c.k.h.n.p.C.D.p.p.E.s.t.F.t.G.F.t.H.I.EQtQtQtQtQtQt",
"QtQtQtQtQtQtQt.J.e.e.f.J.K.c.f.#.f.L.M.N.g.d.O.y.O.d.d.f.P.q.E.Q.I.q.c.I.n.I.j.s.R.j.C.sQtQtQtQtQtQt",
"QtQtQtQtQt.R.p.c.b.c.b.e.k.d.S.A.y.e.b.a.#.a.z.d.e.S.N.T.U.L.L.V.y.d.w.g.B.f.b.o.h.o.v.nQtQtQtQtQtQt",
"QtQtQtQt.n.k.n.k.W.m.P.e.l.k.c.k.e.y.f.g.O.d.X.g.Y.d.V.L.x.w.M.Z.M.0.1.2.3.4.5.1.1.2.6.7QtQtQtQtQtQt",
"QtQtQt.L.w.L.d.L.L.L.w.d.y.l.y.d.e.d.8.f.b.e.y.9.N.9.w#.###a.2.3.Z.Z.6.V.w.L.L.L.Y.e.b.#QtQtQtQtQtQt",
"QtQtQt.Z.0#b.1#c#a.2.M.N.x.N.d.k.k.c.e.y.A.d.A.y#d.d.O.N#..V.M.Z#a.M#a###a.2#e.Z.O.L.V.7QtQtQtQtQtQt",
"QtQtQt.3.Z.0.6.L.w.L.L.L.d.w.d.d.d.w#f.g.B.c.b.f.k.y.e.e.J.y.J.n#g.c.Q.j.q.f.e.e#h.g.#.wQtQtQtQtQtQt",
"QtQtQtQt#i.w#..L.L.L#..N.O.g.f.a.d.b.g.f.O.d.O.d.e.k.P.e.k.J.n.n.n.R.C.j.R.p.E.s#j.D.j.jQtQtQtQtQtQt",
"QtQtQtQtQt.j.s.j.q.c.b.w.g.g.z.w.w.g.S.Z.w.7.#.o.h.k.k.k.h.8.J.h.h.n.I.R.p.n.I.j#k.j.I.IQtQtQtQtQtQt",
"QtQtQtQtQtQtQt.R.n.I.n.J.k.k.f.d#d.e.f.e.e.w.M.w.f.c.g.e.k.J.J.h.n.I.I.p.J.J.c.I.E.s.n.jQtQtQtQtQtQt",
"QtQtQtQtQtQtQtQtQt.n.q.o.h.k.c.k.k.J.p.c.k.e.#.e.d.y.e.O.d#..d#l.q.c.I.j#m.h.c.a.q#l.q.JQtQtQtQtQtQt",
"QtQtQtQtQtQtQtQtQtQtQtQtQt.g#d.f.c.h.n.o.k.J.k.J.e.f.c.c.k.h.f.f.g.g#d.k.k.k.g.#.i.u.u.uQtQtQtQtQtQt",
"QtQtQtQtQtQtQtQtQtQtQtQtQtQtQtQtQtQt.v.c.k.e#f.c.q.o.v.JQtQtQtQtQtQtQtQtQtQtQtQtQtQtQtQtQtQtQtQtQtQt",
"QtQtQtQtQtQtQtQtQtQtQtQtQtQtQtQtQtQtQtQtQtQtQtQtQtQtQtQtQtQtQtQtQtQtQtQtQtQtQtQtQtQtQtQtQtQtQtQtQtQt",
"QtQtQtQtQtQtQtQtQtQtQtQtQtQtQtQtQtQtQtQtQtQtQtQtQtQtQtQtQtQtQtQtQtQtQtQtQtQtQtQtQtQtQtQtQtQtQtQtQtQt",
"QtQtQtQtQtQtQtQtQtQtQtQtQtQtQtQtQtQtQtQtQtQtQtQtQtQtQtQtQtQtQtQtQtQtQtQtQtQtQtQtQtQtQtQtQtQtQtQtQtQt",
"QtQtQtQtQtQtQtQtQtQtQtQtQtQtQtQtQtQtQtQtQtQtQtQtQtQtQtQtQtQtQtQtQtQtQtQtQtQtQtQtQtQtQtQtQtQtQtQtQtQt",
"QtQtQtQtQtQtQtQtQtQtQtQtQtQtQtQtQtQtQtQtQtQtQtQtQtQtQtQtQtQtQtQtQtQtQtQtQtQtQtQtQtQtQtQtQtQtQtQtQtQt",
"QtQtQtQtQtQtQtQtQtQtQtQtQtQtQtQtQtQtQtQtQtQtQtQtQtQtQtQtQtQtQtQtQtQtQtQtQtQtQtQtQtQtQtQtQtQtQtQtQtQt",
"QtQtQtQtQtQtQtQtQtQtQtQtQtQtQtQtQtQtQtQtQtQtQtQtQtQtQtQtQtQtQtQtQtQtQtQtQtQtQtQtQtQtQtQtQtQtQtQtQtQt",
"QtQtQtQtQtQtQtQtQtQtQtQtQtQtQtQtQtQtQtQtQtQtQtQtQtQtQtQtQtQtQtQtQtQtQtQtQtQtQtQtQtQtQtQtQtQtQtQtQtQt",
"QtQtQtQtQtQtQtQtQtQtQtQtQtQtQtQtQtQtQtQtQtQtQtQtQtQtQtQtQtQtQtQtQtQtQtQtQtQtQtQtQtQtQtQtQtQtQtQtQtQt",
"QtQtQtQtQtQtQtQtQtQtQtQtQtQtQtQtQtQtQtQtQtQtQtQtQtQtQtQtQtQtQtQtQtQtQtQtQtQtQtQtQtQtQtQtQtQtQtQtQtQt",
"QtQtQtQtQtQtQtQtQtQtQtQtQtQtQtQtQtQtQtQtQtQtQtQtQtQtQtQtQtQtQtQtQtQtQtQtQtQtQtQtQtQtQtQtQtQtQtQtQtQt",
"QtQtQtQtQtQtQtQtQtQtQtQtQtQtQtQtQtQtQtQtQtQtQtQtQtQtQtQtQtQtQtQtQtQtQtQtQtQtQtQtQtQtQtQtQtQtQtQtQtQt",
"QtQtQtQtQtQtQtQtQtQtQtQtQtQtQtQtQtQtQtQtQtQtQtQtQtQtQtQtQtQtQtQtQtQtQtQtQtQtQtQtQtQtQtQtQtQtQtQtQtQt",
"QtQtQtQtQtQtQtQtQtQtQtQtQtQtQtQtQtQtQtQtQtQtQtQtQtQtQtQtQtQtQtQtQtQtQtQtQtQtQtQtQtQtQtQtQtQtQtQtQtQt",
"QtQtQtQtQtQtQtQtQtQtQtQtQtQtQtQtQtQtQtQtQtQtQtQtQtQtQtQtQtQtQtQtQtQtQtQtQtQtQtQtQtQtQtQtQtQtQtQtQtQt",
"QtQtQtQtQtQtQtQtQtQtQtQtQtQtQtQtQtQtQtQtQtQtQtQtQtQtQtQtQtQtQtQtQtQtQtQtQtQtQtQtQtQtQtQtQtQtQtQtQtQt",
"QtQtQtQtQtQtQtQtQtQtQtQtQtQtQtQtQtQtQtQtQtQtQtQtQtQtQtQtQtQtQtQtQtQtQtQtQtQtQtQtQtQtQtQtQtQtQtQtQtQt",
"QtQtQtQtQtQtQtQtQtQtQtQtQtQtQtQtQtQtQtQtQtQtQtQtQtQtQtQtQtQtQtQtQtQtQtQtQtQtQtQtQtQtQtQtQtQtQtQtQtQt"};
